<svg xmlns="http://www.w3.org/2000/svg" id="SvgjsSvg7331" width="4096" height="3872.540696017378" version="1.1" xmlns:xlink="http://www.w3.org/1999/xlink" xmlns:svgjs="http://svgjs.com/svgjs"><defs id="SvgjsDefs7332"></defs><g id="SvgjsG7333" transform="translate(328, 328) scale(34.4)" opacity="1"><defs id="SvgjsDefs2505"><linearGradient id="SvgjsLinearGradientPwxuWEVIv" gradientUnits="userSpaceOnUse" x1="-2.0536982016414598" y1="2.783056184445225" x2="0.11369820164146127" y2="-59.28305618444521"><stop id="SvgjsStop2509" stop-color="#050a0f" offset="0"></stop><stop id="SvgjsStop2510" stop-color="#2977b1" offset="0.289"></stop></linearGradient><linearGradient id="SvgjsLinearGradientzk8DbU4urS" gradientUnits="userSpaceOnUse" x1="-45.44109668446695" y1="38.91890331553303" x2="46.53109668446695" y2="-53.053290053400886"><stop id="SvgjsStop2513" stop-color="#081b2a" offset="0"></stop><stop id="SvgjsStop2514" stop-color="#030a0f" offset="1"></stop></linearGradient><linearGradient id="SvgjsLinearGradientZUy_lvp1ZF" gradientUnits="userSpaceOnUse" x1="56.86908721431295" y1="57.364549217200434" x2="171.1027236458263" y2="-56.86908721431293"><stop id="SvgjsStop2518" stop-color="#081b2a" offset="0"></stop><stop id="SvgjsStop2519" stop-color="#2977b1" offset="1"></stop></linearGradient><linearGradient id="SvgjsLinearGradientsaMqVDqafV" gradientUnits="userSpaceOnUse" x1="6.524999999999983" y1="84.92500000000003" x2="86.175" y2="5.275000000000001"><stop id="SvgjsStop2522" stop-color="#02070e" offset="0"></stop><stop id="SvgjsStop2523" stop-color="#2977b1" offset="0.345"></stop></linearGradient></defs><g id="SvgjsG2506" transform="scale(0.32819968410145733)" opacity="1"><g id="SvgjsG2507" class="4Fu-7I_IU" transform="translate(-7.04480567335013, -18.56491228070141) scale(3.570175438596483)" light-content="false" non-strokable="false" fill="#d1d4d6"><path d="M40.6 35.3l-4.5-9.8C26.2 45.3 16.4 65 6.6 84.8c2.9 0 5.5.1 8.1 0 .5 0 1.3-.5 1.6-1 2-3.9 3.9-7.8 5.9-11.7C28.2 60 34.3 48 40.3 35.9c0-.3.2-.4.3-.6zM59.1 76h-1.6c-9.3 0-18.6-.1-27.9-.1-.7 0-1.8.5-2.1 1.1-1.3 2.5-2.3 5-3.5 8h39.2l-4.1-9zM36.6 24.1l9.6-18.9 39.9 79.4-21.9-.2z"></path></g><g id="SvgjsG2511" class="text" transform="translate(224.88418755742208, 213.80523690773066) scale(1)" light-content="false" fill="url(#SvgjsLinearGradientPwxuWEVIv)"><path d="M-50.62 -36.33L-67.88 -56.5L-81.75 -56.5L-57.55 -28.17L-81.67 0L-67.72 0L-50.62 -20.01L-33.44 0L-19.53 0L-43.69 -28.17L-19.38 -56.5L-33.36 -56.5Z M5.48 0L5.48 -56.5L-4.77 -56.5L-4.77 0Z M79.81 -16.63C79.81 -18.65 79.57 -20.46 79.07 -22.06C78.57 -23.67 77.89 -25.08 77.04 -26.32C76.18 -27.55 75.21 -28.61 74.1 -29.49C73 -30.37 71.84 -31.1 70.62 -31.68C69.39 -32.25 68.17 -32.68 66.93 -32.96C65.7 -33.23 64.53 -33.38 63.42 -33.41L63.35 -33.41L39.79 -33.41C37.84 -33.41 36.32 -33.98 35.23 -35.12C34.14 -36.27 33.6 -37.82 33.6 -39.79C33.6 -41.74 34.14 -43.3 35.23 -44.48C36.32 -45.66 37.84 -46.25 39.79 -46.25L74.65 -46.25L74.65 -56.5L39.79 -56.5C38.13 -56.5 36.34 -56.2 34.43 -55.61C32.51 -55.02 30.73 -54.06 29.09 -52.74C27.45 -51.41 26.08 -49.69 24.99 -47.57C23.9 -45.46 23.36 -42.87 23.36 -39.79C23.36 -36.72 23.9 -34.12 24.99 -31.99C26.08 -29.86 27.45 -28.14 29.09 -26.83C30.73 -25.52 32.51 -24.57 34.43 -23.97C36.34 -23.38 38.13 -23.09 39.79 -23.09L63.35 -23.09C64.29 -23.09 65.15 -22.93 65.93 -22.62C66.7 -22.3 67.36 -21.85 67.9 -21.28C68.44 -20.7 68.85 -20.01 69.14 -19.23C69.43 -18.44 69.57 -17.57 69.57 -16.63C69.57 -14.68 69.03 -13.13 67.94 -11.98C66.85 -10.82 65.32 -10.24 63.35 -10.24L23.83 -10.24L23.83 0L63.35 0C64.45 0 65.62 -0.13 66.87 -0.39C68.12 -0.66 69.35 -1.06 70.56 -1.62C71.76 -2.17 72.93 -2.88 74.06 -3.74C75.19 -4.61 76.18 -5.66 77.02 -6.89C77.86 -8.13 78.53 -9.55 79.05 -11.17C79.56 -12.79 79.81 -14.6 79.81 -16.63Z"></path></g><g id="SvgjsG2515" class="text" transform="translate(157.00013946898778, 238.00146123753586) scale(1)" light-content="false" fill="url(#SvgjsLinearGradientzk8DbU4urS)"><path d="M-67.71 0L-67.71 -13.04C-67.71 -13.34 -67.8 -13.6 -67.97 -13.83C-68.15 -14.06 -68.38 -14.21 -68.65 -14.29C-68.94 -14.36 -69.22 -14.35 -69.49 -14.24C-69.75 -14.14 -69.96 -13.96 -70.11 -13.71L-75.95 -3.57L-81.78 -13.71C-81.86 -13.84 -81.94 -13.94 -82.05 -14.03C-82.15 -14.12 -82.27 -14.19 -82.4 -14.24C-82.53 -14.29 -82.66 -14.32 -82.8 -14.33C-82.94 -14.34 -83.07 -14.33 -83.21 -14.29C-83.5 -14.21 -83.72 -14.06 -83.9 -13.83C-84.07 -13.6 -84.16 -13.34 -84.16 -13.04L-84.16 0L-81.6 0L-81.6 -8.42L-77.03 -0.42C-76.92 -0.22 -76.77 -0.07 -76.57 0.04C-76.38 0.14 -76.17 0.2 -75.95 0.2C-75.72 0.2 -75.5 0.14 -75.3 0.04C-75.1 -0.07 -74.95 -0.22 -74.83 -0.42L-70.29 -8.42L-70.29 0Z M-51.09 -5.78L-51.09 -8.36L-59.18 -8.36L-59.18 -5.78ZM-49.94 0L-49.94 -2.56L-59.16 -2.56C-59.51 -2.56 -59.77 -2.65 -59.94 -2.83C-60.12 -3.01 -60.21 -3.26 -60.21 -3.6L-60.21 -11.57L-49.94 -11.57L-49.94 -14.13L-61.48 -14.13C-61.66 -14.13 -61.84 -14.1 -61.99 -14.04C-62.15 -13.97 -62.29 -13.88 -62.4 -13.76C-62.52 -13.64 -62.61 -13.5 -62.67 -13.35C-62.74 -13.19 -62.77 -13.02 -62.77 -12.84L-62.77 -3.6C-62.77 -2.93 -62.65 -2.37 -62.41 -1.92C-62.17 -1.46 -61.87 -1.09 -61.51 -0.8C-61.16 -0.52 -60.77 -0.31 -60.35 -0.19C-59.93 -0.06 -59.54 0 -59.18 0Z M-32.88 0L-32.88 -2.56L-42.12 -2.56C-42.45 -2.56 -42.71 -2.65 -42.89 -2.83C-43.07 -3.01 -43.16 -3.27 -43.16 -3.6L-43.16 -10.52C-43.16 -10.87 -43.07 -11.13 -42.89 -11.31C-42.71 -11.48 -42.46 -11.57 -42.12 -11.57L-32.88 -11.57L-32.88 -14.13L-42.12 -14.13C-42.56 -14.13 -42.96 -14.08 -43.31 -13.97C-43.65 -13.86 -43.96 -13.71 -44.23 -13.52C-44.49 -13.33 -44.72 -13.12 -44.91 -12.87C-45.1 -12.63 -45.26 -12.38 -45.38 -12.11C-45.49 -11.84 -45.58 -11.57 -45.64 -11.3C-45.69 -11.03 -45.72 -10.77 -45.72 -10.54L-45.72 -3.6C-45.72 -3.16 -45.67 -2.76 -45.55 -2.41C-45.44 -2.06 -45.29 -1.75 -45.11 -1.48C-44.92 -1.22 -44.7 -0.99 -44.46 -0.8C-44.22 -0.62 -43.96 -0.46 -43.7 -0.34C-43.43 -0.23 -43.16 -0.14 -42.89 -0.08C-42.61 -0.03 -42.36 0 -42.12 0Z M-25.85 -8.36L-25.85 -14.13L-28.41 -14.13L-28.41 0L-25.85 0L-25.85 -5.78L-16.85 -5.78L-16.85 0L-14.29 0L-14.29 -14.13L-16.85 -14.13L-16.85 -8.36Z M4.59 0L4.59 -12.84C4.59 -13.02 4.56 -13.19 4.5 -13.35C4.43 -13.5 4.34 -13.64 4.22 -13.76C4.1 -13.88 3.96 -13.97 3.81 -14.04C3.65 -14.1 3.48 -14.13 3.3 -14.13L-2.47 -14.13C-3.49 -14.13 -4.43 -13.96 -5.29 -13.61C-6.15 -13.26 -6.9 -12.78 -7.53 -12.15C-8.16 -11.53 -8.65 -10.78 -9.01 -9.92C-9.36 -9.05 -9.54 -8.1 -9.54 -7.07L-9.54 0L-6.98 0L-6.98 -3.47L2.03 -3.47L2.03 0ZM-6.98 -6.03L-6.98 -7.07C-6.98 -7.78 -6.88 -8.39 -6.68 -8.9C-6.48 -9.4 -6.22 -9.82 -5.91 -10.15C-5.6 -10.49 -5.27 -10.75 -4.9 -10.94C-4.53 -11.13 -4.18 -11.27 -3.85 -11.36C-3.52 -11.46 -3.22 -11.51 -2.97 -11.54C-2.72 -11.56 -2.55 -11.57 -2.47 -11.57L2.03 -11.57L2.03 -6.03Z M23.71 -1.09L23.71 -14.13L21.15 -14.13L21.15 -4.18L11.79 -13.95C11.6 -14.14 11.38 -14.26 11.13 -14.31C10.87 -14.36 10.62 -14.33 10.38 -14.23C10.15 -14.13 9.96 -13.97 9.81 -13.76C9.66 -13.54 9.59 -13.3 9.59 -13.04L9.59 0L12.15 0L12.15 -9.96L21.52 -0.18C21.64 -0.05 21.78 0.05 21.95 0.11C22.11 0.17 22.27 0.2 22.42 0.2C22.6 0.2 22.77 0.16 22.93 0.1C23.08 0.03 23.22 -0.06 23.34 -0.17C23.45 -0.29 23.54 -0.42 23.61 -0.58C23.68 -0.74 23.71 -0.91 23.71 -1.09Z M31.29 0L31.29 -14.13L28.73 -14.13L28.73 0Z M48.96 0L48.96 -2.56L39.72 -2.56C39.39 -2.56 39.14 -2.65 38.95 -2.83C38.77 -3.01 38.68 -3.27 38.68 -3.6L38.68 -10.52C38.68 -10.87 38.77 -11.13 38.95 -11.31C39.13 -11.48 39.38 -11.57 39.72 -11.57L48.96 -11.57L48.96 -14.13L39.72 -14.13C39.28 -14.13 38.88 -14.08 38.54 -13.97C38.19 -13.86 37.88 -13.71 37.61 -13.52C37.35 -13.33 37.12 -13.12 36.93 -12.87C36.74 -12.63 36.58 -12.38 36.47 -12.11C36.35 -11.84 36.26 -11.57 36.2 -11.3C36.15 -11.03 36.12 -10.77 36.12 -10.54L36.12 -3.6C36.12 -3.16 36.18 -2.76 36.29 -2.41C36.4 -2.06 36.55 -1.75 36.74 -1.48C36.92 -1.22 37.14 -0.99 37.38 -0.8C37.63 -0.62 37.88 -0.46 38.15 -0.34C38.41 -0.23 38.68 -0.14 38.95 -0.08C39.23 -0.03 39.48 0 39.72 0Z M67.28 0L67.28 -12.84C67.28 -13.02 67.24 -13.19 67.18 -13.35C67.11 -13.5 67.02 -13.64 66.9 -13.76C66.78 -13.88 66.65 -13.97 66.49 -14.04C66.33 -14.1 66.16 -14.13 65.98 -14.13L60.21 -14.13C59.19 -14.13 58.25 -13.96 57.39 -13.61C56.53 -13.26 55.78 -12.78 55.15 -12.15C54.52 -11.53 54.03 -10.78 53.67 -9.92C53.32 -9.05 53.14 -8.1 53.14 -7.07L53.14 0L55.7 0L55.7 -3.47L64.71 -3.47L64.71 0ZM55.7 -6.03L55.7 -7.07C55.7 -7.78 55.8 -8.39 56 -8.9C56.21 -9.4 56.46 -9.82 56.77 -10.15C57.08 -10.49 57.42 -10.75 57.78 -10.94C58.15 -11.13 58.5 -11.27 58.83 -11.36C59.17 -11.46 59.46 -11.51 59.71 -11.54C59.96 -11.56 60.13 -11.57 60.21 -11.57L64.71 -11.57L64.71 -6.03Z M85.25 0L85.25 -2.56L74.83 -2.56L74.83 -14.13L72.27 -14.13L72.27 -1.29C72.27 -1.11 72.3 -0.94 72.37 -0.78C72.44 -0.62 72.53 -0.48 72.64 -0.37C72.76 -0.25 72.89 -0.16 73.05 -0.1C73.21 -0.03 73.38 0 73.56 0Z"></path></g><g id="SvgjsG2516" class="text" transform="translate(152.4040994460791, 259.57839213047896) scale(1)" light-content="false" fill="#01080e"><path d="M-85.45 -4.4L-85.45 -5.03C-85.45 -5.19 -85.47 -5.37 -85.51 -5.57C-85.55 -5.76 -85.61 -5.95 -85.7 -6.14C-85.78 -6.32 -85.89 -6.51 -86.03 -6.68C-86.16 -6.85 -86.32 -7 -86.51 -7.13C-86.69 -7.27 -86.91 -7.37 -87.16 -7.45C-87.4 -7.53 -87.68 -7.57 -87.99 -7.57L-91.1 -7.57C-91.29 -7.57 -91.49 -7.54 -91.72 -7.47C-91.94 -7.4 -92.15 -7.29 -92.34 -7.14C-92.54 -6.99 -92.7 -6.79 -92.82 -6.54C-92.95 -6.29 -93.02 -5.99 -93.02 -5.64L-93.02 0L-91.64 0L-91.64 -5.64C-91.64 -5.82 -91.6 -5.96 -91.5 -6.05C-91.41 -6.15 -91.27 -6.2 -91.08 -6.2L-87.99 -6.2C-87.81 -6.2 -87.65 -6.17 -87.52 -6.11C-87.38 -6.05 -87.26 -5.97 -87.17 -5.87C-87.07 -5.77 -86.99 -5.64 -86.94 -5.5C-86.88 -5.36 -86.84 -5.2 -86.83 -5.03L-86.83 -4.4C-86.83 -4.23 -86.85 -4.07 -86.91 -3.93C-86.97 -3.79 -87.04 -3.67 -87.15 -3.57C-87.25 -3.48 -87.37 -3.4 -87.51 -3.34C-87.66 -3.28 -87.82 -3.24 -87.99 -3.23L-91.1 -3.23L-91.1 -1.86L-87.99 -1.86C-87.82 -1.86 -87.64 -1.88 -87.45 -1.92C-87.26 -1.95 -87.07 -2.02 -86.88 -2.1C-86.69 -2.19 -86.51 -2.29 -86.34 -2.43C-86.17 -2.56 -86.01 -2.72 -85.88 -2.91C-85.75 -3.1 -85.65 -3.32 -85.57 -3.56C-85.49 -3.81 -85.45 -4.09 -85.45 -4.4Z M-76.25 0L-76.25 -1.37L-81.83 -1.37L-81.83 -7.57L-83.2 -7.57L-83.2 -0.69C-83.2 -0.59 -83.18 -0.5 -83.15 -0.42C-83.11 -0.33 -83.06 -0.26 -83 -0.2C-82.94 -0.14 -82.87 -0.09 -82.78 -0.05C-82.7 -0.02 -82.61 0 -82.51 0Z M-67.14 -0.69L-67.14 -7.57L-68.52 -7.57L-68.52 -1.37L-70.93 -1.37C-70.97 -1.37 -71.06 -1.38 -71.19 -1.39C-71.33 -1.4 -71.49 -1.43 -71.66 -1.48C-71.84 -1.53 -72.03 -1.61 -72.23 -1.71C-72.42 -1.81 -72.6 -1.95 -72.77 -2.13C-72.94 -2.31 -73.07 -2.54 -73.18 -2.8C-73.29 -3.07 -73.34 -3.4 -73.34 -3.78L-73.34 -7.57L-74.71 -7.57L-74.71 -3.78C-74.71 -3.34 -74.66 -2.94 -74.55 -2.58C-74.45 -2.22 -74.3 -1.9 -74.12 -1.62C-73.93 -1.34 -73.72 -1.1 -73.47 -0.89C-73.23 -0.69 -72.96 -0.52 -72.68 -0.39C-72.4 -0.26 -72.11 -0.16 -71.81 -0.1C-71.52 -0.03 -71.22 0 -70.93 0L-67.83 0C-67.74 0 -67.65 -0.02 -67.57 -0.05C-67.48 -0.09 -67.41 -0.14 -67.34 -0.2C-67.28 -0.26 -67.23 -0.33 -67.2 -0.42C-67.16 -0.5 -67.14 -0.59 -67.14 -0.69Z M-55.66 0L-55.66 -6.98C-55.66 -7.14 -55.71 -7.28 -55.8 -7.41C-55.9 -7.53 -56.02 -7.61 -56.16 -7.65C-56.32 -7.69 -56.47 -7.68 -56.61 -7.63C-56.75 -7.57 -56.86 -7.48 -56.95 -7.34L-60.07 -1.91L-63.2 -7.34C-63.23 -7.41 -63.28 -7.47 -63.34 -7.51C-63.39 -7.56 -63.46 -7.6 -63.53 -7.62C-63.59 -7.65 -63.67 -7.67 -63.74 -7.67C-63.81 -7.68 -63.89 -7.67 -63.96 -7.65C-64.11 -7.61 -64.23 -7.53 -64.33 -7.41C-64.42 -7.28 -64.47 -7.14 -64.47 -6.98L-64.47 0L-63.1 0L-63.1 -4.51L-60.65 -0.23C-60.59 -0.12 -60.51 -0.04 -60.41 0.02C-60.3 0.08 -60.19 0.11 -60.07 0.11C-59.95 0.11 -59.83 0.08 -59.73 0.02C-59.62 -0.04 -59.53 -0.12 -59.47 -0.23L-57.04 -4.51L-57.04 0Z M-45.43 -1.66L-45.43 -1.93C-45.43 -2.19 -45.46 -2.44 -45.52 -2.66C-45.58 -2.88 -45.66 -3.08 -45.76 -3.26C-45.86 -3.43 -45.98 -3.59 -46.12 -3.72C-46.25 -3.86 -46.4 -3.97 -46.55 -4.06C-46.37 -4.31 -46.24 -4.58 -46.16 -4.86C-46.08 -5.14 -46.04 -5.4 -46.04 -5.64L-46.04 -5.9C-46.04 -6.21 -46.1 -6.47 -46.21 -6.68C-46.32 -6.89 -46.46 -7.06 -46.62 -7.19C-46.79 -7.32 -46.97 -7.42 -47.17 -7.48C-47.36 -7.54 -47.54 -7.57 -47.71 -7.57L-52.3 -7.57C-52.4 -7.57 -52.49 -7.55 -52.58 -7.52C-52.66 -7.48 -52.73 -7.43 -52.8 -7.37C-52.86 -7.31 -52.91 -7.23 -52.94 -7.15C-52.98 -7.06 -52.99 -6.97 -52.99 -6.88L-52.99 -0.69C-52.99 -0.59 -52.98 -0.5 -52.94 -0.42C-52.91 -0.33 -52.86 -0.26 -52.8 -0.2C-52.73 -0.14 -52.66 -0.09 -52.58 -0.05C-52.49 -0.02 -52.4 0 -52.3 0L-47.09 0C-46.79 0 -46.53 -0.06 -46.32 -0.17C-46.1 -0.28 -45.93 -0.42 -45.8 -0.58C-45.67 -0.75 -45.57 -0.93 -45.52 -1.12C-45.46 -1.31 -45.43 -1.49 -45.43 -1.66ZM-46.8 -1.93L-46.8 -1.67C-46.8 -1.6 -46.81 -1.54 -46.83 -1.5C-46.85 -1.46 -46.88 -1.43 -46.91 -1.41C-46.94 -1.39 -46.97 -1.38 -47 -1.38C-47.04 -1.37 -47.07 -1.37 -47.09 -1.37L-51.62 -1.37L-51.62 -6.2L-47.71 -6.2C-47.52 -6.2 -47.42 -6.1 -47.42 -5.9L-47.42 -5.64C-47.42 -5.46 -47.45 -5.3 -47.51 -5.16C-47.56 -5.02 -47.64 -4.9 -47.74 -4.79C-47.84 -4.69 -47.97 -4.61 -48.11 -4.56C-48.25 -4.5 -48.42 -4.48 -48.6 -4.48L-51.07 -4.48L-51.07 -3.09L-47.98 -3.09C-47.8 -3.09 -47.64 -3.07 -47.49 -3.01C-47.35 -2.96 -47.23 -2.88 -47.12 -2.78C-47.02 -2.67 -46.94 -2.55 -46.89 -2.41C-46.83 -2.27 -46.8 -2.11 -46.8 -1.93Z M-41.77 0L-41.77 -7.57L-43.14 -7.57L-43.14 0Z M-31.52 -0.59L-31.52 -7.57L-32.89 -7.57L-32.89 -2.24L-37.91 -7.47C-38.01 -7.57 -38.13 -7.64 -38.26 -7.66C-38.4 -7.69 -38.53 -7.68 -38.66 -7.62C-38.79 -7.57 -38.89 -7.48 -38.97 -7.37C-39.05 -7.25 -39.09 -7.12 -39.09 -6.98L-39.09 0L-37.71 0L-37.71 -5.33L-32.7 -0.1C-32.63 -0.02 -32.56 0.03 -32.47 0.06C-32.38 0.09 -32.3 0.11 -32.21 0.11C-32.12 0.11 -32.03 0.09 -31.94 0.05C-31.86 0.02 -31.79 -0.03 -31.73 -0.09C-31.66 -0.15 -31.61 -0.23 -31.58 -0.31C-31.54 -0.4 -31.52 -0.49 -31.52 -0.59Z M-21.38 -0.69L-21.38 -3.78C-21.38 -3.88 -21.39 -3.97 -21.43 -4.05C-21.47 -4.13 -21.51 -4.21 -21.58 -4.27C-21.64 -4.33 -21.71 -4.38 -21.79 -4.42C-21.88 -4.46 -21.97 -4.48 -22.07 -4.48L-26.4 -4.48L-26.4 -3.09L-22.75 -3.09L-22.75 -1.37L-27.02 -1.37C-27.2 -1.37 -27.33 -1.42 -27.43 -1.52C-27.53 -1.61 -27.57 -1.75 -27.57 -1.93L-27.57 -5.63C-27.57 -5.82 -27.53 -5.96 -27.43 -6.05C-27.34 -6.15 -27.2 -6.2 -27.02 -6.2L-21.44 -6.2L-21.44 -7.57L-27.02 -7.57C-27.26 -7.57 -27.47 -7.54 -27.65 -7.48C-27.84 -7.42 -28 -7.34 -28.15 -7.24C-28.29 -7.14 -28.41 -7.02 -28.51 -6.89C-28.62 -6.76 -28.7 -6.63 -28.76 -6.48C-28.83 -6.34 -28.87 -6.2 -28.9 -6.05C-28.93 -5.91 -28.95 -5.77 -28.95 -5.64L-28.95 -1.93C-28.95 -1.69 -28.92 -1.48 -28.86 -1.29C-28.8 -1.1 -28.72 -0.94 -28.62 -0.79C-28.52 -0.65 -28.4 -0.53 -28.27 -0.43C-28.14 -0.33 -28 -0.25 -27.86 -0.18C-27.72 -0.12 -27.58 -0.07 -27.43 -0.04C-27.28 -0.01 -27.15 0 -27.02 0L-22.07 0C-21.97 0 -21.88 -0.02 -21.79 -0.05C-21.71 -0.09 -21.64 -0.14 -21.58 -0.2C-21.51 -0.26 -21.47 -0.33 -21.43 -0.42C-21.39 -0.5 -21.38 -0.59 -21.38 -0.69Z M-12.89 -4.48L-12.89 -7.57L-14.26 -7.57L-14.26 0L-12.89 0L-12.89 -3.09L-8.07 -3.09L-8.07 0L-6.69 0L-6.69 -7.57L-8.07 -7.57L-8.07 -4.48Z M2.21 -3.09L2.21 -4.48L-2.12 -4.48L-2.12 -3.09ZM2.83 0L2.83 -1.37L-2.11 -1.37C-2.29 -1.37 -2.43 -1.42 -2.53 -1.51C-2.62 -1.61 -2.67 -1.75 -2.67 -1.93L-2.67 -6.2L2.83 -6.2L2.83 -7.57L-3.35 -7.57C-3.45 -7.57 -3.54 -7.55 -3.62 -7.52C-3.71 -7.48 -3.78 -7.43 -3.84 -7.37C-3.9 -7.31 -3.95 -7.23 -3.99 -7.15C-4.02 -7.06 -4.04 -6.97 -4.04 -6.88L-4.04 -1.93C-4.04 -1.57 -3.98 -1.27 -3.85 -1.03C-3.72 -0.78 -3.56 -0.58 -3.37 -0.43C-3.18 -0.28 -2.97 -0.17 -2.74 -0.1C-2.52 -0.03 -2.31 0 -2.12 0Z M12.67 0L12.67 -6.88C12.67 -6.97 12.65 -7.06 12.61 -7.15C12.58 -7.23 12.53 -7.31 12.46 -7.37C12.4 -7.43 12.33 -7.48 12.24 -7.52C12.16 -7.55 12.07 -7.57 11.97 -7.57L8.88 -7.57C8.34 -7.57 7.83 -7.48 7.37 -7.29C6.91 -7.1 6.51 -6.84 6.17 -6.51C5.83 -6.17 5.57 -5.77 5.38 -5.31C5.19 -4.85 5.1 -4.34 5.1 -3.78L5.1 0L6.47 0L6.47 -1.86L11.29 -1.86L11.29 0ZM6.47 -3.23L6.47 -3.78C6.47 -4.17 6.52 -4.49 6.63 -4.76C6.74 -5.03 6.87 -5.26 7.04 -5.44C7.2 -5.62 7.39 -5.76 7.58 -5.86C7.78 -5.96 7.97 -6.04 8.14 -6.09C8.32 -6.14 8.48 -6.17 8.61 -6.18C8.75 -6.19 8.84 -6.2 8.88 -6.2L11.29 -6.2L11.29 -3.23Z M22.18 -6.2L22.18 -7.57L14.75 -7.57L14.75 -6.2L17.78 -6.2L17.78 0L19.16 0L19.16 -6.2Z M25.65 0L25.65 -7.57L24.28 -7.57L24.28 0Z M35.9 -0.59L35.9 -7.57L34.53 -7.57L34.53 -2.24L29.52 -7.47C29.42 -7.57 29.3 -7.64 29.16 -7.66C29.03 -7.69 28.89 -7.68 28.76 -7.62C28.64 -7.57 28.54 -7.48 28.46 -7.37C28.38 -7.25 28.34 -7.12 28.34 -6.98L28.34 0L29.71 0L29.71 -5.33L34.73 -0.1C34.79 -0.02 34.87 0.03 34.96 0.06C35.04 0.09 35.13 0.11 35.21 0.11C35.31 0.11 35.4 0.09 35.48 0.05C35.57 0.02 35.64 -0.03 35.7 -0.09C35.76 -0.15 35.81 -0.23 35.85 -0.31C35.89 -0.4 35.9 -0.49 35.9 -0.59Z M46.05 -0.69L46.05 -3.78C46.05 -3.88 46.03 -3.97 46 -4.05C45.96 -4.13 45.91 -4.21 45.85 -4.27C45.79 -4.33 45.72 -4.38 45.63 -4.42C45.55 -4.46 45.46 -4.48 45.36 -4.48L41.02 -4.48L41.02 -3.09L44.68 -3.09L44.68 -1.37L40.41 -1.37C40.23 -1.37 40.09 -1.42 40 -1.52C39.9 -1.61 39.85 -1.75 39.85 -1.93L39.85 -5.63C39.85 -5.82 39.9 -5.96 39.99 -6.05C40.09 -6.15 40.23 -6.2 40.41 -6.2L45.99 -6.2L45.99 -7.57L40.41 -7.57C40.17 -7.57 39.96 -7.54 39.77 -7.48C39.59 -7.42 39.42 -7.34 39.28 -7.24C39.14 -7.14 39.01 -7.02 38.91 -6.89C38.81 -6.76 38.73 -6.63 38.66 -6.48C38.6 -6.34 38.55 -6.2 38.52 -6.05C38.49 -5.91 38.48 -5.77 38.48 -5.64L38.48 -1.93C38.48 -1.69 38.51 -1.48 38.57 -1.29C38.63 -1.1 38.71 -0.94 38.81 -0.79C38.91 -0.65 39.02 -0.53 39.15 -0.43C39.28 -0.33 39.42 -0.25 39.56 -0.18C39.71 -0.12 39.85 -0.07 40 -0.04C40.14 -0.01 40.28 0 40.41 0L45.36 0C45.46 0 45.55 -0.02 45.63 -0.05C45.72 -0.09 45.79 -0.14 45.85 -0.2C45.91 -0.26 45.96 -0.33 46 -0.42C46.03 -0.5 46.05 -0.59 46.05 -0.69Z M59.21 -1.93L59.21 -3.17L58.58 -3.17C58.38 -3.17 58.21 -3.13 58.05 -3.06C57.9 -2.99 57.77 -2.89 57.66 -2.77C57.56 -2.66 57.48 -2.52 57.43 -2.38C57.37 -2.23 57.35 -2.08 57.35 -1.93C57.35 -1.75 57.29 -1.6 57.18 -1.48C57.07 -1.37 56.92 -1.31 56.73 -1.31L54.87 -1.31C54.69 -1.31 54.55 -1.37 54.43 -1.49C54.32 -1.6 54.26 -1.76 54.26 -1.95L54.26 -2.54C54.26 -2.72 54.31 -2.87 54.42 -2.99C54.53 -3.11 54.68 -3.17 54.87 -3.17L56.74 -3.17L56.74 -4.4L54.87 -4.4C54.69 -4.4 54.54 -4.46 54.43 -4.56C54.32 -4.67 54.26 -4.82 54.26 -5.03C54.26 -5.11 54.27 -5.2 54.3 -5.27C54.33 -5.35 54.37 -5.41 54.42 -5.47C54.48 -5.52 54.54 -5.57 54.62 -5.6C54.69 -5.63 54.78 -5.64 54.87 -5.64L57.97 -5.64L57.97 -6.88L54.87 -6.88C54.69 -6.88 54.48 -6.85 54.27 -6.78C54.05 -6.72 53.85 -6.61 53.66 -6.46C53.48 -6.32 53.32 -6.13 53.2 -5.89C53.08 -5.66 53.01 -5.37 53.01 -5.03C53.01 -4.83 53.05 -4.62 53.12 -4.4C53.19 -4.18 53.3 -3.97 53.45 -3.78C53.32 -3.64 53.21 -3.46 53.13 -3.26C53.05 -3.06 53.01 -2.82 53.01 -2.54L53.01 -1.9C53.02 -1.72 53.06 -1.52 53.13 -1.3C53.21 -1.09 53.32 -0.89 53.47 -0.71C53.62 -0.52 53.81 -0.37 54.04 -0.25C54.27 -0.12 54.55 -0.06 54.87 -0.06L56.74 -0.06C56.86 -0.06 56.99 -0.08 57.13 -0.11C57.27 -0.13 57.41 -0.18 57.54 -0.24C57.68 -0.3 57.81 -0.38 57.93 -0.48C58.06 -0.58 58.17 -0.7 58.27 -0.83C58.36 -0.97 58.44 -1.12 58.5 -1.3C58.55 -1.48 58.58 -1.69 58.58 -1.91L58.59 -1.93Z M73.56 -0.69L73.56 -3.78C73.56 -3.88 73.54 -3.97 73.51 -4.05C73.47 -4.13 73.43 -4.21 73.36 -4.27C73.3 -4.33 73.23 -4.38 73.14 -4.42C73.06 -4.46 72.97 -4.48 72.87 -4.48L68.54 -4.48L68.54 -3.09L72.19 -3.09L72.19 -1.37L67.92 -1.37C67.74 -1.37 67.61 -1.42 67.51 -1.52C67.41 -1.61 67.36 -1.75 67.36 -1.93L67.36 -5.63C67.36 -5.82 67.41 -5.96 67.51 -6.05C67.6 -6.15 67.74 -6.2 67.92 -6.2L73.5 -6.2L73.5 -7.57L67.92 -7.57C67.68 -7.57 67.47 -7.54 67.29 -7.48C67.1 -7.42 66.93 -7.34 66.79 -7.24C66.65 -7.14 66.53 -7.02 66.43 -6.89C66.32 -6.76 66.24 -6.63 66.18 -6.48C66.11 -6.34 66.07 -6.2 66.04 -6.05C66.01 -5.91 65.99 -5.77 65.99 -5.64L65.99 -1.93C65.99 -1.69 66.02 -1.48 66.08 -1.29C66.14 -1.1 66.22 -0.94 66.32 -0.79C66.42 -0.65 66.54 -0.53 66.67 -0.43C66.8 -0.33 66.93 -0.25 67.08 -0.18C67.22 -0.12 67.36 -0.07 67.51 -0.04C67.66 -0.01 67.79 0 67.92 0L72.87 0C72.97 0 73.06 -0.02 73.14 -0.05C73.23 -0.09 73.3 -0.14 73.36 -0.2C73.43 -0.26 73.47 -0.33 73.51 -0.42C73.54 -0.5 73.56 -0.59 73.56 -0.69Z M83.5 0L83.5 -6.88C83.5 -6.97 83.48 -7.06 83.45 -7.15C83.41 -7.23 83.36 -7.31 83.3 -7.37C83.24 -7.43 83.16 -7.48 83.08 -7.52C82.99 -7.55 82.9 -7.57 82.81 -7.57L79.72 -7.57C79.17 -7.57 78.67 -7.48 78.21 -7.29C77.75 -7.1 77.35 -6.84 77.01 -6.51C76.67 -6.17 76.41 -5.77 76.22 -5.31C76.03 -4.85 75.93 -4.34 75.93 -3.78L75.93 0L77.3 0L77.3 -1.86L82.13 -1.86L82.13 0ZM77.3 -3.23L77.3 -3.78C77.3 -4.17 77.36 -4.49 77.46 -4.76C77.57 -5.03 77.71 -5.26 77.87 -5.44C78.04 -5.62 78.22 -5.76 78.42 -5.86C78.61 -5.96 78.8 -6.04 78.98 -6.09C79.16 -6.14 79.31 -6.17 79.45 -6.18C79.58 -6.19 79.67 -6.2 79.72 -6.2L82.13 -6.2L82.13 -3.23Z M93.45 -2.23C93.45 -2.5 93.42 -2.74 93.35 -2.96C93.28 -3.17 93.19 -3.36 93.08 -3.53C92.96 -3.69 92.83 -3.83 92.68 -3.95C92.54 -4.07 92.38 -4.17 92.22 -4.24C92.05 -4.32 91.89 -4.38 91.72 -4.42C91.56 -4.45 91.4 -4.47 91.25 -4.48L91.24 -4.48L88.09 -4.48C87.83 -4.48 87.62 -4.55 87.48 -4.71C87.33 -4.86 87.26 -5.07 87.26 -5.33C87.26 -5.59 87.33 -5.8 87.48 -5.96C87.62 -6.12 87.83 -6.2 88.09 -6.2L92.76 -6.2L92.76 -7.57L88.09 -7.57C87.86 -7.57 87.63 -7.53 87.37 -7.45C87.11 -7.37 86.87 -7.24 86.65 -7.07C86.43 -6.89 86.25 -6.66 86.1 -6.37C85.96 -6.09 85.89 -5.74 85.89 -5.33C85.89 -4.92 85.96 -4.57 86.1 -4.29C86.25 -4 86.43 -3.77 86.65 -3.59C86.87 -3.42 87.11 -3.29 87.37 -3.21C87.63 -3.13 87.86 -3.09 88.09 -3.09L91.24 -3.09C91.37 -3.09 91.49 -3.07 91.59 -3.03C91.69 -2.99 91.78 -2.93 91.85 -2.85C91.93 -2.77 91.98 -2.68 92.02 -2.58C92.06 -2.47 92.08 -2.35 92.08 -2.23C92.08 -1.97 92 -1.76 91.86 -1.6C91.71 -1.45 91.51 -1.37 91.24 -1.37L85.95 -1.37L85.95 0L91.24 0C91.39 0 91.55 -0.02 91.72 -0.05C91.88 -0.09 92.05 -0.14 92.21 -0.22C92.37 -0.29 92.53 -0.39 92.68 -0.5C92.83 -0.62 92.96 -0.76 93.07 -0.92C93.19 -1.09 93.28 -1.28 93.35 -1.5C93.42 -1.71 93.45 -1.96 93.45 -2.23Z"></path></g><rect id="SvgjsRect2520" width="227.97181086013921" height="0.49546200288751685" fill="url(#SvgjsLinearGradientZUy_lvp1ZF)" transform="translate(44.880786313163185, 243.47499734639274) scale(1)" light-content="false"></rect><g id="SvgjsG2524" class="FWM4Juckyu" transform="translate(-11.954716981132078, 60.717132450539175) scale(1.8113207547169812)" light-content="false" non-strokable="false" fill="url(#SvgjsLinearGradientsaMqVDqafV)"><path d="M40.6 35.3l-4.5-9.8C26.2 45.3 16.4 65 6.6 84.8c2.9 0 5.5.1 8.1 0 .5 0 1.3-.5 1.6-1 2-3.9 3.9-7.8 5.9-11.7C28.2 60 34.3 48 40.3 35.9c0-.3.2-.4.3-.6zM59.1 76h-1.6c-9.3 0-18.6-.1-27.9-.1-.7 0-1.8.5-2.1 1.1-1.3 2.5-2.3 5-3.5 8h39.2l-4.1-9zM36.6 24.1l9.6-18.9 39.9 79.4-21.9-.2z"></path></g></g></g></svg>